<svg width="375" height="453" viewBox="0 0 375 453" fill="none" xmlns="http://www.w3.org/2000/svg">
<g id="people 3" clip-path="url(#clip0_38_595)" filter="url(#filter0_d_38_595)">
<g id="Group">
<path id="Vector" d="M293.625 143.18C295.924 126.183 289.062 115.156 284.449 107.682C278.717 98.4538 268.777 92.4509 265.987 90.898C262.486 72.9768 248.397 68.1865 240.501 68.1865H239.204C227.523 68.2095 213.955 61.2026 210.481 59.3073C210.584 49.2948 212.136 43.728 212.081 43.728C215.434 37.7439 216.597 33.0768 215.486 29.8394C215.085 28.6455 214.48 27.8983 213.936 27.3953C216.389 4.91342 200.488 0.667938 200.263 0.611582C200.145 0.571924 197.372 0.0229756 194.769 0.0229756C194.309 0.0229756 193.855 0.0229756 193.54 0.0688953C190.653 -0.233757 186.843 0.571924 186.632 0.624106C186.463 0.667938 170.564 4.91342 173.022 27.4078C172.468 27.8983 171.855 28.6476 171.458 29.8415C170.365 33.0789 171.523 37.7794 174.726 43.3816C174.735 43.4504 176.375 49.0192 176.489 59.3094C173.004 61.2047 159.458 68.1886 147.752 68.1886H146.45C138.558 68.1886 124.452 73.0081 120.955 90.9335C118.291 92.5386 108.652 98.7001 102.92 107.917L102.302 108.901C97.8497 116.01 91.1172 126.77 93.3657 143.284C93.5531 144.198 98.0727 165.949 101.682 173.505C102.793 175.858 100.906 182.364 100.096 185.131C100.053 185.286 100.035 185.411 100.023 185.566C100.014 185.868 99.6654 192.99 101.891 197.601C102.028 200.356 103.291 204.829 107.532 205.319C108.332 206.181 109.954 207.53 112.801 207.141C113.681 207.576 115.684 208.1 117.766 207.507C118.763 207.753 121.051 207.728 123.028 206.952C123.277 207.027 123.579 207.073 123.92 207.073C125.091 207.073 126.105 206.572 126.817 205.634C127.688 204.509 128.076 202.888 127.967 200.648C128.338 200.408 128.718 200.089 129.06 199.619C130.351 197.912 130.692 195.023 130.062 191.061C130.03 190.848 129.953 190.677 129.86 190.489C129.661 190.101 125.134 181.585 119.582 177.692C119.14 173.472 118.658 166.853 119.068 164.82C120.56 157.592 122.057 147.346 118.868 139.448C122.083 138.164 128.822 135.24 131.763 132.326C134.88 129.226 137.092 126.868 139.109 124.148C140.047 130.247 144.648 139.276 158.795 151.685C158.431 156.757 157.075 180.022 161.678 193.95C158.515 201.116 135.393 256.013 151.571 291.878C151.603 291.945 155.268 298.229 154.294 308.532C154.196 308.92 144.447 346.998 157.863 388.048C157.903 388.15 161.98 398.965 157.903 409.061C155.268 415.629 149.769 420.495 141.571 423.5C141.222 423.636 140.919 423.886 140.728 424.222C140.338 424.938 136.989 431.14 138.837 435.765C139.448 437.274 140.863 439.203 144.17 439.866C144.17 439.866 152.332 442.15 163.164 427.84C164.013 427.268 168.212 424.652 176.459 422.88C176.731 422.824 179.153 422.369 180.544 419.526C182.088 416.36 181.616 411.741 179.06 405.569C179.052 405.544 177.778 403.056 177.866 398.372C177.949 393.427 178.318 391.807 178.539 391.256C179.511 388.733 192.543 329.329 181.895 313.817C181.885 313.794 180.532 311.168 182.862 305.092C183.219 304.543 190.16 293.5 193.486 273.719C196.814 293.466 203.734 304.477 203.959 304.76C206.404 311.087 205.117 313.727 205.128 313.727C194.419 329.329 207.476 388.733 208.441 391.256C208.645 391.809 209.014 393.45 209.091 398.372C209.179 403.056 207.914 405.546 207.835 405.727C205.36 411.747 204.888 416.387 206.421 419.557C207.815 422.382 210.236 422.859 210.44 422.897C218.735 424.652 222.94 427.303 223.791 427.873C232.086 438.827 238.985 440.004 241.569 440.004C242.319 440.004 242.738 439.902 242.738 439.902C246.081 439.228 247.507 437.297 248.122 435.79C249.966 431.152 246.598 424.915 246.205 424.243C246.01 423.901 245.712 423.638 245.365 423.511C237.194 420.495 231.691 415.656 229.05 409.119C224.981 399.079 229.041 388.173 229.112 387.977C242.502 347.032 232.751 308.931 232.689 308.862C231.664 298.263 235.315 291.957 235.479 291.694C251.556 256.013 228.434 201.128 225.258 193.986C229.86 180.045 228.516 156.766 228.129 151.708C242.278 139.299 246.88 130.259 247.815 124.177C249.834 126.878 252.049 129.266 255.165 132.336C258.102 135.25 264.849 138.172 268.053 139.458C264.866 147.356 266.363 157.6 267.851 164.831C268.271 166.851 267.789 173.436 267.338 177.713C261.771 181.596 257.247 190.122 257.054 190.487C256.96 190.688 256.901 190.871 256.859 191.08C256.213 195.06 256.565 197.935 257.852 199.642C258.203 200.099 258.57 200.418 258.943 200.646C258.838 202.873 259.217 204.528 260.097 205.653C260.826 206.59 261.83 207.071 263.003 207.071C263.328 207.071 263.635 207.025 263.897 206.975C265.865 207.715 268.149 207.763 269.153 207.528C271.256 208.122 273.249 207.619 274.126 207.139C276.914 207.482 278.558 206.215 279.365 205.361C281.666 205.15 283.426 203.656 284.359 201.024C284.852 199.65 284.998 198.333 285.024 197.617C287.239 192.988 286.915 185.879 286.891 185.586C286.879 185.419 286.859 185.294 286.819 185.152C286.012 182.37 284.115 175.856 285.228 173.526C288.89 165.947 293.404 144.232 293.625 143.18ZM231.777 222.232L193.465 256.983L156.158 225.175H176.414C177.287 225.175 177.988 224.397 177.988 223.428C177.988 222.456 177.287 221.69 176.414 221.69H155.384C155.761 220.341 156.138 219.051 156.527 217.807C156.602 217.807 156.659 217.899 156.737 217.899H191.515C192.386 217.899 193.085 217.112 193.085 216.14C193.085 215.167 192.384 214.393 191.515 214.393H157.58C158.062 212.884 158.544 211.366 159.005 210.005H227.997C229.193 213.597 230.506 217.759 231.777 222.232ZM180.122 303.4C176.884 311.723 179.037 315.439 179.322 315.858C188.667 329.501 176.526 387.255 175.625 389.847C175.239 390.831 174.784 392.646 174.692 398.334C174.598 404.076 176.234 407.22 176.245 407.22C178.198 411.981 178.747 415.75 177.767 417.829C177.124 419.201 175.99 419.451 175.899 419.484C165.849 421.634 161.375 424.97 161.197 425.095C161.073 425.187 160.964 425.302 160.873 425.418C153.156 435.719 147.046 436.504 145.356 436.504C145.005 436.504 144.797 436.46 144.723 436.45C143.107 436.151 142.11 435.444 141.678 434.369C140.776 432.154 142.206 428.397 143.089 426.627C151.843 423.258 157.775 417.831 160.734 410.509C165.372 399.031 160.914 387.165 160.742 386.758C147.724 346.95 157.174 309.922 157.322 309.233C158.485 297.288 154.316 290.229 154.245 290.129C145.929 271.671 148.899 247.148 153.769 227.582L191.788 259.985C190.201 287.125 180.373 302.919 180.122 303.4ZM232.792 289.955C232.598 290.229 228.445 297.29 229.643 309.555C229.757 309.922 239.21 346.906 226.23 386.683C226.019 387.186 221.565 399.067 226.21 410.538C229.14 417.856 235.099 423.279 243.859 426.65C244.715 428.384 246.162 432.167 245.27 434.394C244.841 435.469 243.844 436.153 242.214 436.473C242.163 436.483 241.968 436.529 241.599 436.529C239.907 436.529 233.797 435.73 226.065 425.45C225.974 425.302 225.871 425.197 225.738 425.118C225.556 424.972 221.102 421.636 211.015 419.499C210.974 419.499 209.825 419.249 209.188 417.856C208.197 415.765 208.759 412.008 210.624 407.403C210.7 407.268 212.372 404.147 212.265 398.357C212.151 392.705 211.699 390.843 211.341 389.906C210.41 387.278 198.287 329.509 207.656 315.85C207.907 315.451 210.06 311.726 206.662 303.105C206.559 302.922 196.743 287.219 195.124 259.989L232.712 225.885C237.857 245.687 241.303 271.053 232.792 289.955ZM282.5 171.875C280.93 175.198 282.326 180.898 283.812 185.991C283.842 187.196 283.913 192.952 282.161 196.248C282.021 196.522 281.949 196.839 281.949 197.139C281.949 197.15 281.934 198.465 281.488 199.763C280.808 201.629 279.763 201.915 278.777 201.915C278.732 201.902 278.74 201.902 278.706 201.902C278.183 201.902 277.671 202.205 277.394 202.662C277.353 202.731 276.39 203.969 274.096 203.645C273.703 203.599 273.307 203.714 272.985 203.912C272.944 203.923 271.437 204.603 269.684 204.048C269.386 203.979 269.037 203.956 268.775 204.079C268.76 204.061 267.356 204.693 264.607 203.524C264.289 203.397 263.901 203.397 263.543 203.514C263.543 203.514 263.316 203.599 263.08 203.599C262.713 203.599 262.608 203.435 262.557 203.38C262.398 203.18 261.926 202.332 262.275 199.677C262.336 199.166 262.241 198.638 261.917 198.254C261.615 197.889 261.255 197.678 260.817 197.678C260.738 197.688 260.631 197.843 260.303 197.363C260.047 196.981 259.484 195.655 260.011 192.04C260.835 190.558 265.035 183.201 269.669 180.345C270.107 180.101 270.405 179.608 270.467 179.049C270.589 177.878 271.728 167.598 271.02 164.115C269.532 156.872 267.995 146.429 271.737 139.443C271.964 138.965 272.009 138.416 271.859 137.913C271.673 137.435 271.342 137.051 270.879 136.864C268.046 135.83 260.144 132.547 257.343 129.788C252.705 125.169 250.132 122.288 247.239 117.281C246.801 116.521 245.918 116.252 245.189 116.676C244.462 117.087 244.148 118.047 244.455 118.886C245.652 122.146 246.212 131.729 225.595 149.562C225.174 149.924 224.952 150.523 225.001 151.117C225.024 151.385 227.282 179.026 222.153 193.491C221.986 193.948 222.007 194.472 222.215 194.906C222.294 195.083 224.252 199.527 226.783 206.482H160.286C162.799 199.504 164.774 195.06 164.843 194.906C165.053 194.472 165.066 193.948 164.905 193.491C159.786 179.024 162.031 151.385 162.061 151.117C162.119 150.523 161.881 149.924 161.467 149.562C140.851 131.729 141.41 122.146 142.616 118.886C142.924 118.047 142.605 117.087 141.882 116.676C141.16 116.241 140.289 116.511 139.836 117.281C136.926 122.301 134.366 125.202 129.738 129.788C126.942 132.545 119.025 135.857 116.203 136.864C115.752 137.051 115.381 137.433 115.214 137.913C115.045 138.419 115.089 138.965 115.342 139.443C119.078 146.452 117.547 156.872 116.054 164.115C115.351 167.611 116.483 177.889 116.612 179.049C116.674 179.608 116.964 180.101 117.405 180.345C122.014 183.201 126.238 190.558 127.062 192.04C127.59 195.655 127.023 196.981 126.751 197.363C126.552 197.642 126.361 197.678 126.41 197.688C125.99 197.471 125.499 197.866 125.177 198.254C124.858 198.638 124.714 199.166 124.778 199.677C125.111 202.362 124.649 203.19 124.495 203.38C124.448 203.435 124.326 203.599 123.967 203.599C123.725 203.599 123.528 203.514 123.528 203.514C123.157 203.364 122.773 203.387 122.436 203.524C119.719 204.67 118.298 204.079 118.298 204.079C117.995 203.956 117.669 203.948 117.367 204.048C115.604 204.601 114.069 203.933 114.069 203.933C113.741 203.687 113.312 203.585 112.936 203.643C110.635 203.967 109.671 202.706 109.671 202.706C109.374 202.203 108.671 201.915 108.137 201.915C105.206 201.915 105.092 197.642 105.092 197.15C105.092 196.847 105.023 196.522 104.873 196.277C103.117 192.965 103.19 187.208 103.22 186.014C104.712 180.896 106.124 175.221 104.532 171.898C101.123 164.731 96.5568 142.756 96.5343 142.658C94.4956 127.678 100.546 117.995 104.964 110.929L105.594 109.925C111.684 100.138 123.026 93.7533 123.127 93.6845C123.569 93.4319 123.888 92.9706 123.98 92.4509C126.802 76.0764 139.476 71.714 146.521 71.714L147.822 71.7432C162.081 71.7432 178.198 62.3714 178.87 61.9602C179.386 61.668 179.71 61.0752 179.71 60.4073C179.71 48.8022 177.851 42.5487 177.619 41.9267C174.01 35.4562 174.079 32.4297 174.452 31.1899C174.724 30.2757 175.261 29.996 175.261 29.996C176.005 29.7497 176.476 28.9106 176.363 28.0548C173.652 7.85436 186.853 4.1954 187.334 4.05764C187.353 4.05764 190.851 3.33128 193.359 3.57757C193.445 3.57757 193.673 3.57757 193.756 3.57757C196.259 3.33128 199.707 4.04721 199.707 4.04721C200.278 4.18288 213.474 7.74165 210.759 28.0548C210.652 28.8543 211.124 29.6829 211.812 29.973C211.873 29.996 212.406 30.2402 212.675 31.1899C213.033 32.4068 213.114 35.4437 209.361 42.2753C209.289 42.5383 207.406 48.8022 207.406 60.4073C207.406 61.0752 207.732 61.6471 208.248 61.9602C208.92 62.3714 225.048 71.7432 239.3 71.7432L240.6 71.714C247.655 71.714 260.328 76.0764 263.148 92.4509C263.241 93.004 263.582 93.4841 264.03 93.7074C264.145 93.7763 275.852 99.894 282.036 109.859C286.28 116.701 292.709 127.037 290.606 142.537C290.466 142.745 285.916 164.708 282.5 171.875ZM244.698 109.153C244.698 121.877 234.018 132.253 220.911 132.253C207.805 132.253 197.153 121.877 197.153 109.153V98.1387C197.153 97.1681 197.854 96.3958 198.727 96.3958C199.598 96.3958 200.29 97.1681 200.29 98.1387V109.153C200.29 119.936 209.539 128.729 220.911 128.729C232.285 128.729 241.55 119.934 241.55 109.153C241.55 108.172 242.242 107.402 243.109 107.402C243.979 107.402 244.698 108.185 244.698 109.153ZM166.093 132.255C152.978 132.255 142.32 121.879 142.32 109.155C142.32 108.174 143.025 107.404 143.896 107.404C144.766 107.404 145.47 108.174 145.47 109.155C145.47 119.938 154.723 128.732 166.093 128.732C177.467 128.732 186.714 119.936 186.714 109.155V98.1408C186.714 97.1702 187.415 96.3979 188.288 96.3979C189.159 96.3979 189.86 97.1702 189.86 98.1408V109.155C189.86 121.879 179.208 132.255 166.093 132.255ZM218.949 118.909C218.949 116.767 220.457 115.048 222.335 115.048C224.199 115.048 225.708 116.767 225.708 118.909C225.708 121.05 224.19 122.747 222.335 122.747C220.446 122.758 218.949 121.05 218.949 118.909ZM161.296 118.909C161.296 116.767 162.81 115.048 164.676 115.048C166.547 115.048 168.059 116.767 168.059 118.909C168.059 121.05 166.545 122.747 164.676 122.747C162.808 122.758 161.296 121.05 161.296 118.909ZM216.254 161.877V193.376C216.254 194.359 215.546 195.129 214.673 195.129C213.803 195.129 213.116 194.359 213.116 193.376V161.877C213.116 149.832 204.288 140.022 193.465 140.022C182.629 140.022 173.821 149.832 173.821 161.877V192.251C173.821 193.222 173.12 193.994 172.248 193.994C171.375 193.994 170.674 193.222 170.674 192.251V161.877C170.674 147.891 180.898 136.498 193.458 136.498C205.993 136.498 216.254 147.891 216.254 161.877ZM195.032 158.371V164.791C196.743 166.594 198.525 167.6 200.372 167.621C200.398 167.621 200.41 167.621 200.41 167.621C203.541 167.621 205.934 165 205.962 164.977C206.595 164.298 207.566 164.253 208.186 164.966C208.823 165.657 208.834 166.743 208.201 167.446C208.064 167.6 204.89 171.107 200.411 171.107C200.4 171.107 200.389 171.107 200.389 171.107C198.498 171.084 196.737 170.266 195.036 169.051V176.91C196.746 178.709 198.528 179.742 200.389 179.742C200.4 179.742 200.411 179.742 200.411 179.742C203.543 179.742 205.935 177.12 205.964 177.098C206.597 176.419 207.567 176.371 208.188 177.087C208.825 177.78 208.836 178.863 208.203 179.565C208.066 179.719 204.892 183.226 200.413 183.226C200.402 183.226 200.391 183.226 200.391 183.226C198.5 183.226 196.739 182.397 195.037 181.166V184.006C195.037 184.979 194.333 185.76 193.463 185.76C192.592 185.76 191.888 184.979 191.888 184.006V181.193C190.186 182.407 188.423 183.247 186.542 183.247C186.529 183.247 186.519 183.247 186.51 183.247C182.03 183.247 178.846 179.732 178.706 179.586C178.102 178.884 178.102 177.799 178.706 177.118C179.328 176.417 180.315 176.438 180.937 177.106C180.958 177.141 183.36 179.761 186.499 179.761C186.51 179.761 186.529 179.761 186.549 179.761C188.391 179.74 190.177 178.717 191.878 176.931V169.074C190.177 170.289 188.412 171.105 186.529 171.126C186.519 171.126 186.51 171.126 186.499 171.126C182.015 171.126 178.835 167.611 178.698 167.467C178.091 166.77 178.091 165.68 178.698 165C179.316 164.298 180.308 164.321 180.92 164.989C180.947 165.023 183.353 167.644 186.489 167.644C186.499 167.644 186.519 167.644 186.542 167.644C188.391 167.621 190.164 166.617 191.861 164.816V158.392C190.164 159.608 188.4 160.431 186.529 160.431C186.519 160.431 186.51 160.431 186.499 160.431C182.015 160.431 178.835 156.907 178.698 156.766C178.091 156.081 178.091 154.979 178.698 154.298C179.316 153.597 180.308 153.626 180.92 154.286C180.947 154.321 183.353 156.941 186.499 156.941C186.51 156.941 186.529 156.941 186.549 156.941C188.391 156.918 190.177 155.912 191.878 154.138V149.026C191.878 148.055 192.579 147.287 193.452 147.287C194.324 147.287 195.024 148.058 195.024 149.026V154.115C196.739 155.937 198.521 156.941 200.367 156.941C200.378 156.941 200.393 156.941 200.393 156.941C203.531 156.941 205.924 154.319 205.956 154.296C206.591 153.624 207.56 153.57 208.182 154.284C208.819 154.975 208.829 156.066 208.191 156.763C208.06 156.918 204.886 160.429 200.406 160.429C200.395 160.429 200.38 160.429 200.368 160.429C198.495 160.368 196.743 159.552 195.032 158.371ZM196.362 194.929C196.362 196.707 195.062 198.156 193.465 198.156C191.873 198.156 190.561 196.707 190.561 194.929C190.561 193.142 191.874 191.692 193.465 191.692C195.062 191.692 196.362 193.142 196.362 194.929ZM169.843 304.118C169.292 304.118 168.771 303.813 168.477 303.249C151.77 271.252 162.587 252.47 163.059 251.704C163.541 250.905 164.504 250.69 165.242 251.216C165.966 251.752 166.166 252.85 165.683 253.65C165.574 253.831 155.553 271.5 171.205 301.494C171.645 302.325 171.385 303.402 170.624 303.89C170.377 304.065 170.105 304.118 169.843 304.118ZM224.671 251.704C225.134 252.47 235.959 271.252 219.256 303.249C218.96 303.813 218.435 304.118 217.873 304.118C217.62 304.118 217.33 304.049 217.105 303.869C216.346 303.377 216.08 302.302 216.511 301.471C232.17 271.5 222.138 253.819 222.037 253.625C221.565 252.836 221.761 251.732 222.477 251.193C223.227 250.698 224.19 250.905 224.671 251.704ZM221.094 371.688C221.514 372.546 221.237 373.609 220.457 374.076C220.231 374.235 219.955 374.327 219.713 374.327C219.134 374.327 218.612 373.995 218.338 373.425C204.879 346.458 214.094 331.266 214.48 330.632C214.973 329.841 215.949 329.668 216.668 330.194C217.351 330.743 217.545 331.849 217.064 332.627C216.972 332.776 208.645 346.789 221.094 371.688ZM175.215 330.605C175.614 331.235 184.814 346.449 171.364 373.402C171.066 373.972 170.534 374.293 169.991 374.293C169.724 374.293 169.462 374.226 169.22 374.053C168.469 373.586 168.18 372.525 168.6 371.665C181.033 346.771 172.708 332.742 172.625 332.581C172.138 331.805 172.318 330.699 173.022 330.148C173.74 329.636 174.712 329.805 175.215 330.605ZM138.027 100.629C138.102 101.599 137.463 102.445 136.592 102.524C117.125 104.334 115.342 122.58 115.276 123.34C115.201 124.254 114.51 124.945 113.711 124.945C113.672 124.945 113.62 124.935 113.567 124.935C112.696 124.826 112.066 123.985 112.149 123.017C112.167 122.793 114.279 101.088 136.341 99.0132C137.366 99.0863 137.953 99.6686 138.027 100.629ZM274.842 123.653C274.902 124.613 274.237 125.457 273.38 125.528C273.336 125.528 273.294 125.538 273.264 125.538C272.444 125.538 271.76 124.824 271.717 123.906C270.274 102.301 253.906 100.069 253.198 99.9713C252.338 99.8794 251.71 99.0111 251.806 98.0573C251.901 97.0992 252.542 96.4522 253.537 96.4751C253.709 96.5023 273.21 99.0633 274.842 123.653Z" fill="black"/>
</g>
<path id="Chest" d="M160.863 122.75C149.831 120.862 147.073 112.001 147.073 107.806C144.867 95.8508 166.991 82.375 178.33 77.1315C192.303 83.4237 204.989 79.7532 209.586 77.1315C220.617 83.4237 242.129 98.3677 239.923 107.806C237.716 117.244 227.972 121.701 223.375 122.75C201.312 125.896 193.958 117.244 192.119 119.604C190.28 121.963 174.652 125.11 160.863 122.75Z" fill="#D1D1D6" fill-opacity="0.4" stroke="#A6A6AD" stroke-opacity="0.7"/>
<g id="Legs">
<path d="M153.586 227.033C153.586 226.212 179.999 249.944 193.206 261.913L231.026 227.033C235.528 239.001 242.552 267.453 234.628 285.508C224.722 308.078 234.628 324.492 231.926 329.622C229.225 334.751 238.229 342.958 222.922 401.434H209.415C209.715 399.382 210.135 394.869 209.415 393.227C208.514 391.175 202.211 361.424 204.012 362.45C205.813 363.476 196.808 334.751 205.813 315.259C206.113 312.524 206.353 307.052 204.912 307.052C203.474 307.052 194.574 282.2 192.877 269.048C190.268 304.574 174.668 301.622 180.6 313.208C186.903 325.518 182.401 343.984 184.201 347.062C186.002 350.14 178.799 385.02 176.998 391.175C175.557 396.1 176.397 400.066 176.998 401.434H161.69C165.292 401.434 158.988 378.181 155.386 366.554C154.486 363.818 152.865 352.191 153.586 327.57C154.486 296.793 164.391 312.182 153.586 293.503C142.78 274.825 153.586 228.059 153.586 227.033Z" fill="#D1D1D6" fill-opacity="0.4"/>
<path d="M193.206 261.913C179.999 249.944 153.586 226.212 153.586 227.033C153.586 228.059 142.78 274.825 153.586 293.503C164.391 312.182 154.486 296.793 153.586 327.57C152.865 352.191 154.486 363.818 155.386 366.554C158.988 378.181 165.292 401.434 161.69 401.434C158.088 401.434 170.394 401.434 176.998 401.434C176.397 400.066 175.557 396.1 176.998 391.175C178.799 385.02 186.002 350.14 184.201 347.062C182.401 343.984 186.903 325.518 180.6 313.208C174.296 300.897 192.306 305 193.206 261.913ZM193.206 261.913L231.026 227.033C235.528 239.001 242.552 267.453 234.628 285.508C224.722 308.078 234.628 324.492 231.926 329.622C229.225 334.751 238.229 342.958 222.922 401.434H209.415C209.715 399.382 210.135 394.869 209.415 393.227C208.514 391.175 202.211 361.424 204.012 362.45C205.813 363.476 196.808 334.751 205.813 315.259C206.113 312.524 206.353 307.052 204.912 307.052C203.111 307.052 189.604 268.068 193.206 261.913Z" stroke="#A6A6AD" stroke-opacity="0.7"/>
</g>
<g id="Abs">
<path d="M175.8 153.061V188.446H210.269V153.061C207.648 149.691 200.472 143.119 192.732 143.793C184.991 144.467 178.218 150.252 175.8 153.061Z" fill="#D1D1D6" fill-opacity="0.4"/>
<path d="M192.732 153.061V158.116M192.732 158.116C191.119 159.801 187.047 162.16 183.661 158.116C184.87 159.801 188.378 162.16 192.732 158.116ZM192.732 158.116C194.344 159.801 198.416 162.16 201.803 158.116C200.392 159.801 196.602 162.16 192.732 158.116ZM192.732 158.958V166.541M192.732 166.541C191.119 168.788 187.047 171.933 183.661 166.541C184.87 168.788 188.378 171.933 192.732 166.541ZM192.732 166.541C194.344 168.507 198.295 171.259 201.198 166.541C200.19 168.507 197.086 171.259 192.732 166.541ZM192.732 166.541V176.651M192.732 176.651C191.119 178.336 187.047 180.695 183.661 176.651C184.87 178.336 188.378 180.695 192.732 176.651ZM192.732 176.651C194.344 178.336 198.416 180.695 201.803 176.651C200.593 178.336 197.086 180.695 192.732 176.651ZM175.8 188.446V153.061C178.218 150.252 184.991 144.467 192.732 143.793C200.472 143.119 207.648 149.691 210.269 153.061V188.446H175.8Z" stroke="#A6A6AD" stroke-opacity="0.7"/>
</g>
<g id="Arms">
<path d="M113.829 136.734C106.924 132.766 93.6779 124.237 95.9378 121.856C98.7628 118.881 96.8795 106.979 121.363 93.0931C121.676 86.8115 125.694 73.8516 139.254 72.2647C149.612 71.9341 171.459 69.4876 175.979 62.3464C181.315 64.3301 195.188 66.9088 207.995 61.3546C211.134 64.9913 221.555 72.2647 238.128 72.2647C238.311 72.1358 238.463 72.1409 238.589 72.268C254.836 72.4983 261.998 84.8864 263.553 91.1095C274.225 98.0523 294.627 116.897 290.861 136.734C283.955 138.056 269.956 139.907 269.203 136.734C268.261 132.766 253.194 135.742 244.719 117.889C236.795 101.196 240.397 74.0966 238.589 72.268C238.436 72.2658 238.282 72.2647 238.128 72.2647C221.555 72.2647 211.134 64.9913 207.995 61.3546C195.188 66.9088 181.315 64.3301 175.979 62.3464C171.459 69.4876 149.612 71.9341 139.254 72.2647C144.527 105.59 141.451 116.566 139.254 117.889C129.461 131.378 118.224 136.072 113.829 136.734Z" fill="#D1D1D6" fill-opacity="0.4"/>
<path d="M139.254 72.2647C125.694 73.8516 121.676 86.8115 121.363 93.0931C96.8795 106.979 98.7628 118.881 95.9378 121.856C93.6779 124.237 106.924 132.766 113.829 136.734C118.224 136.072 129.461 131.378 139.254 117.889C141.451 116.566 144.527 105.59 139.254 72.2647ZM139.254 72.2647C149.612 71.9341 171.459 69.4876 175.979 62.3464C181.315 64.3301 195.188 66.9088 207.995 61.3546C211.134 64.9913 221.555 72.2647 238.128 72.2647M238.128 72.2647C254.701 72.2647 261.983 84.8279 263.553 91.1095C274.225 98.0523 294.627 116.897 290.861 136.734C283.955 138.056 269.956 139.907 269.203 136.734C268.261 132.766 253.194 135.742 244.719 117.889C236.245 100.036 240.953 70.281 238.128 72.2647Z" stroke="#A6A6AD"/>
</g>
<g id="Fore_Arm">
<path d="M105.26 173.181C92.7336 137.112 95.1284 125.089 97.8916 123.586C103.05 129.898 115.392 135.985 120.919 138.239C116.497 169.8 117.848 177.69 119.076 177.69C112.445 179.493 107.102 175.435 105.26 173.181Z" fill="#D1D1D6" fill-opacity="0.4"/>
<path d="M282.108 177.69C281.371 181.297 272.59 179.193 268.291 177.69C269.52 172.805 271.239 162.135 268.291 158.528C264.607 154.019 268.291 134.857 268.291 138.239C268.291 140.944 283.643 139.366 291.318 138.239C278.423 183.326 283.029 173.181 282.108 177.69Z" fill="#D1D1D6" fill-opacity="0.4"/>
<path d="M105.26 173.181C92.7336 137.112 95.1284 125.089 97.8916 123.586C103.05 129.898 115.392 135.985 120.919 138.239C116.497 169.8 117.848 177.69 119.076 177.69C112.445 179.493 107.102 175.435 105.26 173.181Z" stroke="#A6A6AD" stroke-opacity="0.7"/>
<path d="M282.108 177.69C281.371 181.297 272.59 179.193 268.291 177.69C269.52 172.805 271.239 162.135 268.291 158.528C264.607 154.019 268.291 134.857 268.291 138.239C268.291 140.944 283.643 139.366 291.318 138.239C278.423 183.326 283.029 173.181 282.108 177.69Z" stroke="#A6A6AD" stroke-opacity="0.7"/>
</g>
</g>
<defs>
<filter id="filter0_d_38_595" x="-8.7" y="0" width="406.4" height="452.7" filterUnits="userSpaceOnUse" color-interpolation-filters="sRGB">
<feFlood flood-opacity="0" result="BackgroundImageFix"/>
<feColorMatrix in="SourceAlpha" type="matrix" values="0 0 0 0 0 0 0 0 0 0 0 0 0 0 0 0 0 0 127 0" result="hardAlpha"/>
<feOffset dx="1" dy="7"/>
<feGaussianBlur stdDeviation="2.85"/>
<feComposite in2="hardAlpha" operator="out"/>
<feColorMatrix type="matrix" values="0 0 0 0 0 0 0 0 0 0 0 0 0 0 0 0 0 0 0.25 0"/>
<feBlend mode="normal" in2="BackgroundImageFix" result="effect1_dropShadow_38_595"/>
<feBlend mode="normal" in="SourceGraphic" in2="effect1_dropShadow_38_595" result="shape"/>
</filter>
<clipPath id="clip0_38_595">
<rect width="395" height="440" fill="white" transform="translate(-4)"/>
</clipPath>
</defs>
</svg>
